<mxfile host="app.diagrams.net" modified="2024-02-10T16:59:13.304Z" agent="Mozilla/5.0 (Windows NT 10.0; Win64; x64) AppleWebKit/537.36 (KHTML, like Gecko) Chrome/121.0.0.0 Safari/537.36 Edg/121.0.0.0" version="23.1.1" etag="_QuA5zEh-tC9SiC6Y1oz" type="github">
  <diagram name="Page-1" id="x9AYoagkFjPnIj1YDkNX">
    <mxGraphModel>
      <root>
        <mxCell id="0" />
        <mxCell id="1" parent="0" />
      </root>
    </mxGraphModel>
  </diagram>
</mxfile>
